Coordinates
version=1
nRows=13
nColumns=38
inDegrees=no

Units are S.I. units (second, meters, Newtons, ...)
If the header above contains a line with 'inDegrees', this indicates whether rotational values are in degrees (yes) or radians (no).

endheader
time	pelvis_tilt	pelvis_list	pelvis_rotation	pelvis_tx	pelvis_ty	pelvis_tz	hip_flexion_r	hip_adduction_r	hip_rotation_r	knee_angle_r	ankle_angle_r	subtalar_angle_r	mtp_angle_r	hip_flexion_l	hip_adduction_l	hip_rotation_l	knee_angle_l	ankle_angle_l	subtalar_angle_l	mtp_angle_l	lumbar_extension	lumbar_bending	lumbar_rotation	arm_flex_r	arm_add_r	arm_rot_r	elbow_flex_r	pro_sup_r	wrist_flex_r	wrist_dev_r	arm_flex_l	arm_add_l	arm_rot_l	elbow_flex_l	pro_sup_l	wrist_flex_l	wrist_dev_l
2.48333	-0.138802	0.0293967	-0.411276	-1.4491	1.00351	-0.535882	0.353091	-0.0891067	-0.0603132	0.796155	-0.0320586	0	0	-0.0221724	-0.0175812	-0.184957	0.0453788	0.0138471	0	0	-0.367518	-0.0478024	-0.107585	0.124249	-0.125237	-0.0774605	0.315011	1.43812	0	0	0.501902	-0.299569	-0.313639	0.234999	1.46165	0	0
2.49167	-0.14406	0.025661	-0.412751	-1.44052	1.00252	-0.534356	0.36731	-0.0801016	-0.0661692	0.784183	-0.0181956	0	0	-0.0316854	-0.0201995	-0.185557	0.0383588	0.0141413	0	0	-0.366782	-0.0412215	-0.112309	0.12236	-0.123072	-0.0875852	0.310586	1.44465	0	0	0.513029	-0.305278	-0.296809	0.23866	1.45797	0	0
2.5	-0.146346	0.0214282	-0.416394	-1.43169	1.00162	-0.532551	0.377467	-0.071322	-0.0702744	0.769209	-0.00488744	0	0	-0.0426021	-0.0225004	-0.188123	0.0359722	0.0173336	0	0	-0.368666	-0.035719	-0.11612	0.119688	-0.122178	-0.0863615	0.309396	1.43198	0	0	0.522754	-0.312003	-0.267296	0.242767	1.42795	0	0
2.50833	-0.150386	0.0185254	-0.419922	-1.42302	1.00057	-0.530696	0.38996	-0.0630826	-0.0741319	0.752006	0.00197595	0	0	-0.0522501	-0.0238832	-0.190443	0.0310541	0.0187298	0	0	-0.368512	-0.0305443	-0.119722	0.118468	-0.120156	-0.100919	0.305504	1.44976	0	0	0.533659	-0.317649	-0.262756	0.251424	1.43495	0	0
2.51667	-0.154951	0.0156968	-0.423693	-1.41402	0.999369	-0.528714	0.4027	-0.0554574	-0.0808674	0.732756	0.00488321	0	0	-0.0623359	-0.0252395	-0.191906	0.0250716	0.0189505	0	0	-0.367469	-0.0252272	-0.123441	0.115651	-0.119219	-0.107034	0.303435	1.4502	0	0	0.543226	-0.322998	-0.259091	0.260075	1.44562	0	0
2.525	-0.158966	0.0136769	-0.426646	-1.40496	0.998149	-0.526741	0.415089	-0.0492336	-0.0831066	0.718251	0.01514	0	0	-0.0717904	-0.0257011	-0.193934	0.0206489	0.0200822	0	0	-0.366774	-0.0205759	-0.128911	0.113163	-0.117562	-0.117886	0.3023	1.45631	0	0	0.552094	-0.329191	-0.245057	0.263334	1.43978	0	0
2.53333	-0.16282	0.0118167	-0.429981	-1.39602	0.997133	-0.524704	0.427562	-0.0427019	-0.0856858	0.700353	0.0218636	0	0	-0.0807648	-0.0261165	-0.196973	0.0171404	0.0220662	0	0	-0.367064	-0.0163159	-0.133002	0.109227	-0.116383	-0.120449	0.304004	1.44099	0	0	0.560028	-0.335443	-0.230646	0.274128	1.41523	0	0
2.54167	-0.16691	0.00924396	-0.432061	-1.38718	0.996195	-0.52253	0.438955	-0.0358637	-0.0907501	0.679937	0.0276402	0	0	-0.0887556	-0.0279327	-0.200914	0.0161162	0.0241509	0	0	-0.368241	-0.0110772	-0.136479	0.107837	-0.1134	-0.147118	0.300182	1.4712	0	0	0.56994	-0.340556	-0.233637	0.287833	1.43443	0	0
2.55	-0.169956	0.00615887	-0.434823	-1.37807	0.995278	-0.520272	0.448241	-0.0294034	-0.0963623	0.658432	0.0318235	0	0	-0.0985313	-0.0296523	-0.207248	0.0154358	0.0247159	0	0	-0.370345	-0.0058533	-0.140586	0.105971	-0.111828	-0.157924	0.298926	1.47243	0	0	0.578676	-0.346854	-0.226843	0.299075	1.43777	0	0
2.55833	-0.173666	0.00409691	-0.436663	-1.3688	0.994146	-0.517922	0.458397	-0.0238678	-0.100543	0.637335	0.0345373	0	0	-0.108108	-0.0306327	-0.208589	0.0119143	0.0242203	0	0	-0.370877	-0.00101664	-0.144781	0.102291	-0.110796	-0.164358	0.300818	1.46934	0	0	0.589383	-0.352703	-0.220698	0.305878	1.44066	0	0
2.56667	-0.178076	0.00280307	-0.436446	-1.35963	0.992746	-0.515428	0.470081	-0.0192073	-0.104591	0.617599	0.0372752	0	0	-0.115428	-0.0317682	-0.207804	0.0101133	0.0220329	0	0	-0.370292	0.00372723	-0.150051	0.0980559	-0.110047	-0.159987	0.303234	1.44404	0	0	0.601152	-0.358946	-0.211308	0.313941	1.43522	0	0
2.575	-0.182092	0.00145741	-0.44032	-1.35	0.991441	-0.512471	0.480558	-0.0131073	-0.10448	0.597815	0.0410462	0	0	-0.125357	-0.0319969	-0.213491	0.00778459	0.0166558	0	0	-0.36969	0.00751512	-0.152071	0.0959792	-0.108493	-0.180038	0.30036	1.46486	0	0	0.610411	-0.363752	-0.211179	0.32168	1.45816	0	0
2.58333	-0.187425	-0.00105406	-0.440077	-1.34089	0.990355	-0.509861	0.491464	-0.00722071	-0.108507	0.576589	0.0425929	0	0	-0.13151	-0.035136	-0.216142	0.009071	0.0126719	0	0	-0.370046	0.0140776	-0.157485	0.0942943	-0.107065	-0.189163	0.300031	1.46297	0	0	0.619985	-0.369548	-0.200503	0.328251	1.46108	0	0
